<svg viewBox="0 0 48 48">
    <g>
        <g>
            <g>
                <path d="M13,48c-0.553,0-1-0.448-1-1V1c0-0.552,0.447-1,1-1s1,0.448,1,1v46C14,47.552,13.553,48,13,48z"/>
            </g>
            <g>
                <path d="M24,48c-0.553,0-1-0.448-1-1V1c0-0.552,0.447-1,1-1s1,0.448,1,1v46C25,47.552,24.553,48,24,48z"/>
            </g>
            <g>
                <path d="M35,48c-0.553,0-1-0.448-1-1V1c0-0.552,0.447-1,1-1s1,0.448,1,1v46C36,47.552,35.553,48,35,48z"/>
            </g>
            <g>
                <path d="M47,14H1c-0.553,0-1-0.448-1-1s0.447-1,1-1h46c0.553,0,1,0.448,1,1S47.553,14,47,14z"/>
            </g>
            <g>
                <path d="M47,25H1c-0.553,0-1-0.448-1-1s0.447-1,1-1h46c0.553,0,1,0.448,1,1S47.553,25,47,25z"/>
            </g>
            <g>
                <path d="M47,36H1c-0.553,0-1-0.448-1-1s0.447-1,1-1h46c0.553,0,1,0.448,1,1S47.553,36,47,36z"/>
            </g>
        </g>
    </g>
</svg>