<svg viewBox="0 0 24 24">
    <g>
        <g fill="none" fill-rule="evenodd" stroke="none" stroke-linecap="round" stroke-linejoin="round" stroke-width="1">
            <path d="M18,12 C18,8.75580986 15.75,6 12,6 C11.50,6 11.05,6.0574637 10.47,6.16556377 M6.07,11.0597012 C6.02,11.3669806 6,11.6811313 6,12" id="Shape" stroke="currentColor" stroke-width="2"/>
            <circle cx="12" cy="12" r="2" stroke="currentColor" stroke-width="2" fill="none" />
            <line id="Path" stroke="currentColor" stroke-width="2" transform="translate(15.519866, 8.500893) rotate(-1.340192) translate(-15.519866, -8.500893) " x1="10.0050753" x2="7.0346572" y1="9.96497162" y2="7.0368145"/>
            <path d="M12,2 C7,2 2,6 2,12 C2,17 6,22 12,22 C18,22 22,17 22,12 C22,6 18,2 12,2 Z" id="Path" stroke="currentColor" stroke-width="2"/>
        </g>
    </g>
</svg>