<?xml version="1.0" ?><svg viewBox="0 0 24 24" xmlns="http://www.w3.org/2000/svg"><title/><path d="M11,6a1,1,0,1,0-1-1A1.0013,1.0013,0,0,0,11,6Z"/><path d="M20.89551,19.19434,16.88184,14H19a.49992.49992,0,0,0,.39453-.80713L15.356,8H17.5a.5.5,0,0,0,.39307-.80908l-5.5-7a.51748.51748,0,0,0-.78614,0l-5.5,7A.5.5,0,0,0,6.5,8H8.644L4.60547,13.19287A.49992.49992,0,0,0,5,14H7.11816L3.10449,19.19434A.5.5,0,0,0,3.5,20H9.87677a5.966,5.966,0,0,1-1.23029,3.14648A.5.5,0,0,0,9,24h6a.5.5,0,0,0,.35352-.85352A5.966,5.966,0,0,1,14.12323,20H20.5a.5.5,0,0,0,.39551-.80566ZM14.0166,23H9.9834a8.95867,8.95867,0,0,0,.9043-3h2.2246A8.95867,8.95867,0,0,0,14.0166,23ZM4.51807,19l4.01367-5.19434A.5.5,0,0,0,8.13623,13H6.02246L10.061,7.80713A.49993.49993,0,0,0,9.6665,7H7.52881L12,1.30908,16.47119,7H14.3335a.49993.49993,0,0,0-.39454.80713L17.97754,13H15.86377a.5.5,0,0,0-.39551.80566L19.48193,19Z"/><path d="M10,14a1,1,0,1,0,1,1A1.0013,1.0013,0,0,0,10,14Z"/><path d="M12,9a1,1,0,1,0,1,1A1.0013,1.0013,0,0,0,12,9Z"/><path d="M14,16a1,1,0,1,0,1,1A1.0013,1.0013,0,0,0,14,16Z"/><circle cx="8.5" cy="17.5" r="0.5"/><circle cx="13.5" cy="14.5" r="0.5"/><circle cx="17" cy="17.5" r="0.5"/><circle cx="13.5" cy="5.5" r="0.5"/><circle cx="14.5" cy="10.5" r="0.5"/><circle cx="9.5" cy="11.5" r="0.5"/></svg>