<?xml version="1.0" ?><svg viewBox="0 0 24 24" xmlns="http://www.w3.org/2000/svg"><title/><path d="M19.11426,15.84814c-.01776-4.199-.79419-7.275-3.94892-8.387A16.654,16.654,0,0,1,16.043,5.20068,10.28549,10.28549,0,0,0,17.11426,2a1.87866,1.87866,0,0,0-2-2,1.37134,1.37134,0,0,0-1.48535.9165.34148.34148,0,0,0-.0293.083c-.05371-.002-.08691-.02392-.252-.21094A2.03992,2.03992,0,0,0,11.61426,0c-1.3418,0-2.06738,1.333-2.34473,1.99463a2.77756,2.77756,0,0,0-1.74316.55078A1.27127,1.27127,0,0,0,7.11426,3.5,5.27017,5.27017,0,0,0,8.15332,5.82129,8.738,8.738,0,0,1,9.038,7.47052c-3.13324,1.11963-3.906,4.18994-3.9237,8.37762-.40039.61084-2,3.17383-2,5.15186,0,2.61035,5.63867,3,9,3s9-.38965,9-3C21.11426,19.022,19.51465,16.459,19.11426,15.84814ZM9.001,5.29053A5.43971,5.43971,0,0,1,8.11426,3.5.27116.27116,0,0,1,8.207,3.27832,2.31905,2.31905,0,0,1,9.5791,2.99854a.49715.49715,0,0,0,.51367-.353C10.09766,2.62939,10.625,1,11.61426,1a1.07824,1.07824,0,0,1,.98437.45117A1.28948,1.28948,0,0,0,13.61426,2a.96053.96053,0,0,0,.93554-.69385C14.64355,1.0835,14.67969,1,15.11426,1a.89652.89652,0,0,1,1,1A10.73832,10.73832,0,0,1,15.127,4.79883a16.8812,16.8812,0,0,0-.92639,2.39538A10.55554,10.55554,0,0,0,12.11426,7a10.51018,10.51018,0,0,0-2.10791.1994A8.92378,8.92378,0,0,0,9.001,5.29053ZM12.11426,23c-4.71,0-8-.82227-8-2,0-1.90234,1.89355-4.68945,1.91211-4.71729A.49748.49748,0,0,0,6.11426,16c0-5.90674,1.57031-8,6-8s6,2.09326,6,8a.49515.49515,0,0,0,.08789.28271c.01855.02784,1.91211,2.811,1.91211,4.71729C20.11426,22.17773,16.82422,23,12.11426,23Z"/><path d="M14.14764,14.83746l.67463.44574a.49972.49972,0,1,0,.55078-.834l-.72364-.47852-.05273-.86718a.49353.49353,0,0,0-.5293-.46875.49992.49992,0,0,0-.46875.52929l.04877.80738L12.5,14.63385V13.30908l.72363-.36181a.50006.50006,0,0,0-.44726-.89454L12,12.44092l-.77637-.38819a.50006.50006,0,0,0-.44726.89454l.72363.36181v1.32477l-1.1474-.66241.04877-.80738a.49992.49992,0,0,0-.46875-.52929.48973.48973,0,0,0-.5293.46875l-.05273.86718-.72364.47852a.49972.49972,0,1,0,.55078.834l.67463-.44574L10.99988,15.5l-1.14752.66254-.67463-.44574a.49972.49972,0,1,0-.55078.834l.72364.47852.05273.86718a.49994.49994,0,0,0,.499.46973l.03028-.001a.49992.49992,0,0,0,.46875-.52929l-.04877-.80738L11.5,16.36615v1.32477l-.72363.36181a.50006.50006,0,1,0,.44726.89454L12,18.55908l.77637.38819a.50006.50006,0,1,0,.44726-.89454L12.5,17.69092V16.36615l1.1474.66241-.04877.80738a.49992.49992,0,0,0,.46875.52929l.03028.001a.49994.49994,0,0,0,.499-.46973l.05273-.86718.72364-.47852a.49972.49972,0,1,0-.55078-.834l-.67463.44574L13.00012,15.5Z"/></svg>