<?xml version="1.0" ?><svg style="enable-background:new 0 0 44 44;" version="1.1" viewBox="0 0 44 44" xml:space="preserve" xmlns="http://www.w3.org/2000/svg" xmlns:xlink="http://www.w3.org/1999/xlink"><g id="ghost"/><g id="bat"/><g id="monster"/><g id="jason"/><g id="grave"/><g id="skull"/><g id="cauldron"/><g id="cleaver"/><g id="candle"/><g id="cat"/><g id="owl"/><g id="pumkin"/><g id="eye"/><g id="vampire"/><g id="finger"/><g id="leaf"/><g id="coffin"/><g id="broom"/><g id="moon"/><g id="poison"/><g id="sweet"><g><path d="M28,0c-8.822,0-16,7.178-16,16c0,3.285,0.998,6.34,2.702,8.884l0,0L1.207,38.379C0.429,39.156,0,40.191,0,41.293    c0,0.723,0.282,1.402,0.793,1.914S1.984,44,2.707,44c1.1,0,2.135-0.429,2.914-1.207l13.495-13.495v0C21.66,31.002,24.715,32,28,32    c8.822,0,16-7.178,16-16S36.822,0,28,0z M40.948,10.692c-2.444,2.855-6.81,4.672-10.688,4.572    c2.778-3.053,4.389-7.618,4.11-11.715C37.326,5.067,39.676,7.599,40.948,10.692z M28,2c1.477,0,2.899,0.233,4.236,0.659    c0.592,3.526-0.638,7.785-2.972,10.7c-0.044-3.925-1.734-8.199-4.395-10.994C25.878,2.134,26.922,2,28,2z M22.692,3.052    c2.855,2.444,4.672,6.81,4.572,10.688c-3.052-2.777-7.616-4.388-11.716-4.109C17.067,6.674,19.599,4.325,22.692,3.052z M14,16    c0-1.477,0.233-2.899,0.659-4.236c3.527-0.595,7.786,0.638,10.7,2.973c-3.924,0.044-8.199,1.733-10.994,4.394    C14.134,18.122,14,17.077,14,16z M4.207,41.379C3.806,41.779,3.273,42,2.707,42c-0.189,0-0.366-0.073-0.5-0.207    C2.074,41.659,2,41.481,2,41.293c0-0.567,0.221-1.1,0.621-1.5l13.315-13.315c0.491,0.565,1.021,1.095,1.586,1.586L4.207,41.379z     M15.052,21.308c2.444-2.855,6.811-4.671,10.688-4.572c-2.778,3.053-4.389,7.618-4.11,11.715    C18.674,26.933,16.325,24.401,15.052,21.308z M28,30c-1.477,0-2.899-0.233-4.236-0.659c-0.592-3.526,0.638-7.785,2.972-10.7    c0.044,3.925,1.734,8.199,4.395,10.994C30.122,29.866,29.078,30,28,30z M33.308,28.948c-2.861-2.449-4.679-6.828-4.572-10.711    c2.824,2.577,6.937,4.169,10.789,4.169c0.314,0,0.622-0.027,0.932-0.049C38.94,25.32,36.405,27.674,33.308,28.948z M30.641,17.264    c3.924-0.044,8.199-1.733,10.994-4.394C41.866,13.878,42,14.923,42,16c0,1.477-0.233,2.899-0.659,4.236    C37.815,20.831,33.555,19.599,30.641,17.264z"/></g></g><g id="zombie"/><g id="hat"/><g id="candy"/></svg>