<?xml version="1.0" ?><svg viewBox="0 0 24 24" xmlns="http://www.w3.org/2000/svg"><title/><path d="M23,9a3.3606,3.3606,0,0,1,.31885-.91846A6.3709,6.3709,0,0,0,24,5.5c0-1.68555-1.252-3.5-4-3.5-2.296,0-3.84735,1.53308-5.14856,3.32117a3.7591,3.7591,0,0,0-5.49121-.24811A6.76567,6.76567,0,0,0,4,2c-2.748,0-4,1.81445-4,3.5A6.3709,6.3709,0,0,0,.68115,8.08154,3.3606,3.3606,0,0,1,1,9a3.3606,3.3606,0,0,1-.31885.91846A6.3709,6.3709,0,0,0,0,12.5C0,14.18555,1.25195,16,4,16a4.879,4.879,0,0,0,2.06683-.46637A14.63405,14.63405,0,0,0,5,20.5a.5.5,0,0,0,.85352.35352,9.55537,9.55537,0,0,1,2.46679-1.72217l1.76367,2.646A.49988.49988,0,0,0,10.5,22a.49363.49363,0,0,0,.14014-.02A.50068.50068,0,0,0,11,21.50928c.04016-2.12915.34741-5.56873.99988-7.07428.652,1.50543.96,4.94519,1.00012,7.07428a.50068.50068,0,0,0,.35986.4707A.49363.49363,0,0,0,13.5,22a.49988.49988,0,0,0,.416-.22266l1.76367-2.646a9.55537,9.55537,0,0,1,2.46679,1.72217A.5.5,0,0,0,19,20.5a14.31673,14.31673,0,0,0-.93835-4.80426A6.23533,6.23533,0,0,0,20,16c2.748,0,4-1.81445,4-3.5a6.3709,6.3709,0,0,0-.68115-2.58154A3.3606,3.3606,0,0,1,23,9ZM12,5c1.87842,0,3,1.49512,3,4s-1.12158,4-3,4S9,11.50488,9,9,10.12158,5,12,5ZM1,12.5a5.47421,5.47421,0,0,1,.59766-2.18164A3.57567,3.57567,0,0,0,2,9a3.57567,3.57567,0,0,0-.40234-1.31836A5.47421,5.47421,0,0,1,1,5.5C1,4.34668,1.78564,3,4,3A5.93463,5.93463,0,0,1,8.72333,5.913c-.01544.02668-.02655.05982-.04163.08716-2.84234.168-5.52838-.13727-5.70856-.66223a.50014.50014,0,0,0-.94628.32422c.39355,1.146,2.856,1.39453,4.916,1.39453.47778,0,.92731-.01392,1.33093-.03247a6.98433,6.98433,0,0,0-.25958,1.78705l-2.356-.78534a.49982.49982,0,1,0-.3164.94824l2.03027.67676L5.22266,11.084a.5.5,0,1,0,.55468.832l2.3396-1.5597a5.30994,5.30994,0,0,0,.482,1.4704C7.47583,13.42834,6.0531,15,4,15,1.78564,15,1,13.65332,1,12.5Zm9.06445,7.44531L8.916,18.22266a.50026.50026,0,0,0-.60157-.187,10.603,10.603,0,0,0-2.23291,1.3003,17.57737,17.57737,0,0,1,1.50574-4.81153,11.34851,11.34851,0,0,0,1.598-1.7984A3.6616,3.6616,0,0,0,11.158,13.89673,19.85013,19.85013,0,0,0,10.06445,19.94531Zm7.86768-.59961a10.61286,10.61286,0,0,0-2.24658-1.31006.50026.50026,0,0,0-.60157.187l-1.14843,1.72265A19.85013,19.85013,0,0,0,12.842,13.89673a3.66387,3.66387,0,0,0,1.76288-.9411,7.93931,7.93931,0,0,0,2.11432,2.10815A15.02362,15.02362,0,0,1,17.93213,19.3457ZM20,15c-1.94843,0-3.422-.89386-4.74786-2.86157.017-.02851.0285-.06513.045-.09436,2.85547-.1886,5.55054.09478,5.72968.618A.50069.50069,0,0,0,21.5,13a.50813.50813,0,0,0,.16211-.02686.5005.5005,0,0,0,.311-.63525c-.48364-1.40863-4.09881-1.43549-6.25714-1.32184a6.95477,6.95477,0,0,0,.268-1.80365l2.36224.76319a.49984.49984,0,1,0,.30762-.95118l-2.05811-.665L18.77588,6.917a.5.5,0,0,0-.55176-.834L15.88049,7.63342a5.345,5.345,0,0,0-.45105-1.40063C16.62433,4.52661,18.01288,3,20,3c2.21436,0,3,1.34668,3,2.5a5.47421,5.47421,0,0,1-.59766,2.18164A3.57567,3.57567,0,0,0,22,9a3.57567,3.57567,0,0,0,.40234,1.31836A5.47421,5.47421,0,0,1,23,12.5C23,13.65332,22.21436,15,20,15Z"/></svg>