<?xml version="1.0" ?><!DOCTYPE svg  PUBLIC '-//W3C//DTD SVG 1.0//EN'  'http://www.w3.org/TR/2001/REC-SVG-20010904/DTD/svg10.dtd'><svg enable-background="new 0 0 24 24" id="Layer_1" version="1.0" viewBox="0 0 24 24" xml:space="preserve" xmlns="http://www.w3.org/2000/svg" xmlns:xlink="http://www.w3.org/1999/xlink"><path d="M22,16c0,1.7-4.5,3-10,3S2,17.7,2,16c0-0.8,1.2-1.6,3-2.1C5,13.9,5,14,5,14h0c0,0,0,0,0,0c0,0.6,1.8,2,7,2s7-1.4,7-2  c0,0,0-0.1,0-0.1C20.8,14.4,22,15.2,22,16z M18.8,12.8c0-2.8-2.3-6.8-3.8-6.8c-1.2,0-1.7,1-3,1s-1.8-1-3-1c-1.5,0-3.8,4-3.8,6.8  c0.6,0.7,2.6,1.6,6.8,1.6C16.2,14.5,18.2,13.5,18.8,12.8z"/></svg>