<svg viewBox="0 0 40 40" xmlns="http://www.w3.org/2000/svg" xmlns:svg="http://www.w3.org/2000/svg">
    <g transform="rotate(90 20 20)">
      <path id="p1" d="M 10 0 L 10 5 L 7 12 L 7 28 L 10 35 L 30 40 L 30 35 L 33 28 L 34 30 L 35 28 L 36 30 L 37 28 L 38 30 L 40 30 L 40 10 L 38 10 L 37 12 L 36 10 L 35 12 L 34 10 L 33 12 L 30 5 L 30 0 Z"/>
      <path d="M 10 35 L 30 35 L 30 40 L 10 40 Z" style="fill: green;"/>
      <path d="M 10 0 L 30 0 L 30 5 L 10 5 Z" style="fill: green;"/>
      <path xmlns="http://www.w3.org/2000/svg" id="p1" d="M 33 28 L 34 30 L 35 28 L 36 30 L 37 28 L 38 30 L 40 30 L 40 10 L 38 10 L 37 12 L 36 10 L 35 12 L 34 10 L 33 12 Z" style="fill: green;"/>
   </g>
</svg>